<?xml version="1.0" standalone="no"?>
<!DOCTYPE svg PUBLIC "-//W3C//DTD SVG 20010904//EN"
 "http://www.w3.org/TR/2001/REC-SVG-20010904/DTD/svg10.dtd">
<svg version="1.0" xmlns="http://www.w3.org/2000/svg"
 width="225.000000pt" height="225.000000pt" viewBox="0 0 225.000000 225.000000"
 preserveAspectRatio="xMidYMid meet">

<g transform="translate(0.000000,225.000000) scale(0.100000,-0.100000)"
fill="#000000" stroke="none">
<path d="M955 2075 c-118 -26 -225 -87 -315 -179 -69 -71 -104 -125 -142 -221
-30 -76 -32 -86 -32 -220 0 -164 14 -217 95 -351 27 -45 49 -85 49 -88 0 -3
-18 -6 -40 -6 l-40 0 0 -150 c0 -111 3 -152 13 -155 6 -3 75 -15 152 -28 l140
-23 92 -140 c103 -154 131 -184 172 -184 40 0 70 32 168 182 47 73 87 134 88
135 1 2 68 14 150 28 81 14 151 27 153 30 3 3 -69 5 -159 5 l-164 0 -24 -43
c-42 -74 -170 -263 -191 -282 -20 -18 -21 -18 -46 6 -14 13 -68 90 -121 171
l-96 148 -159 0 -158 0 0 145 0 145 565 0 564 0 4 -147 3 -148 2 153 2 152
-45 0 c-25 0 -45 3 -45 6 0 4 23 46 51 94 65 113 90 192 96 306 18 310 -198
596 -497 659 -86 18 -204 18 -285 0z m252 -40 c220 -41 403 -208 466 -424 26
-89 26 -232 -1 -323 -10 -36 -47 -114 -81 -172 -58 -97 -66 -106 -93 -106 -24
0 -29 3 -24 18 6 16 5 16 -8 -1 -13 -16 -40 -17 -406 -15 l-392 3 -57 95 c-84
137 -105 209 -104 345 0 91 4 122 25 181 58 162 177 294 325 359 45 20 75 28
178 49 42 8 96 5 172 -9z"/>
<path d="M1053 1993 c26 -2 68 -2 95 0 26 2 4 3 -48 3 -52 0 -74 -1 -47 -3z"/>
<path d="M978 1983 c7 -3 16 -2 19 1 4 3 -2 6 -13 5 -11 0 -14 -3 -6 -6z"/>
<path d="M1208 1983 c7 -3 16 -2 19 1 4 3 -2 6 -13 5 -11 0 -14 -3 -6 -6z"/>
<path d="M920 1970 c-18 -12 -2 -12 25 0 13 6 15 9 5 9 -8 0 -22 -4 -30 -9z"/>
<path d="M842 1935 c-59 -34 -125 -89 -158 -133 -17 -22 -2 -11 37 28 36 36
92 80 125 97 32 18 55 33 49 33 -5 0 -29 -11 -53 -25z"/>
<path d="M1301 1956 c2 -2 15 -9 29 -15 24 -11 24 -11 6 3 -16 13 -49 24 -35
12z"/>
<path d="M1088 1903 c-4 -15 -17 -22 -49 -27 -136 -21 -265 -147 -285 -278 -4
-25 -15 -50 -27 -59 -20 -16 -20 -17 -1 -23 14 -4 22 -22 31 -68 23 -121 133
-234 252 -259 31 -6 63 -20 72 -30 15 -17 17 -17 31 0 8 10 34 21 57 25 134
21 260 152 278 288 4 26 12 42 25 47 16 6 13 11 -24 39 -47 36 -55 38 -84 17
-15 -10 -23 -29 -27 -64 -18 -156 -163 -253 -311 -209 -64 19 -140 100 -156
167 -30 127 38 249 162 286 64 19 72 19 137 -1 l53 -15 -91 -93 c-96 -98 -106
-121 -71 -156 37 -37 57 -26 178 93 129 127 142 148 114 186 -30 42 -108 89
-170 102 -33 7 -64 20 -73 32 -16 19 -16 19 -21 0z"/>
<path d="M1422 1881 c26 -23 66 -63 89 -89 23 -26 32 -33 21 -17 -21 32 -103
112 -137 135 -11 7 1 -6 27 -29z"/>
<path d="M640 1740 c-6 -11 -8 -20 -6 -20 3 0 10 9 16 20 6 11 8 20 6 20 -3 0
-10 -9 -16 -20z"/>
<path d="M1566 1708 c9 -17 22 -47 29 -67 8 -20 14 -29 14 -21 1 17 -45 120
-54 120 -3 0 2 -14 11 -32z"/>
<path d="M606 1675 c-9 -26 -7 -32 5 -12 6 10 9 21 6 23 -2 3 -7 -2 -11 -11z"/>
<path d="M586 1625 c-3 -9 -6 -22 -5 -28 0 -7 5 -1 10 12 5 13 8 26 5 28 -2 2
-6 -3 -10 -12z"/>
<path d="M572 1560 c0 -14 2 -19 5 -12 2 6 2 18 0 25 -3 6 -5 1 -5 -13z"/>
<path d="M1622 1550 c0 -14 2 -19 5 -12 2 6 2 18 0 25 -3 6 -5 1 -5 -13z"/>
<path d="M563 1455 c0 -38 2 -53 4 -32 2 20 2 52 0 70 -2 17 -4 1 -4 -38z"/>
<path d="M1633 1455 c0 -27 2 -38 4 -22 2 15 2 37 0 50 -2 12 -4 0 -4 -28z"/>
<path d="M1622 1360 c0 -14 2 -19 5 -12 2 6 2 18 0 25 -3 6 -5 1 -5 -13z"/>
<path d="M572 1350 c0 -14 2 -19 5 -12 2 6 2 18 0 25 -3 6 -5 1 -5 -13z"/>
<path d="M1611 1314 c0 -11 3 -14 6 -6 3 7 2 16 -1 19 -3 4 -6 -2 -5 -13z"/>
<path d="M581 1304 c0 -11 3 -14 6 -6 3 7 2 16 -1 19 -3 4 -6 -2 -5 -13z"/>
<path d="M610 1224 c0 -6 7 -19 16 -30 14 -18 14 -18 3 6 -14 31 -19 36 -19
24z"/>
<path d="M1555 1180 c-9 -16 -13 -30 -11 -30 3 0 12 14 21 30 9 17 13 30 11
30 -3 0 -12 -13 -21 -30z"/>
<path d="M650 1150 c6 -11 13 -20 16 -20 2 0 0 9 -6 20 -6 11 -13 20 -16 20
-2 0 0 -9 6 -20z"/>
<path d="M1520 1120 c-6 -11 -8 -20 -6 -20 3 0 10 9 16 20 6 11 8 20 6 20 -3
0 -10 -9 -16 -20z"/>
<path d="M683 1095 c9 -16 23 -39 32 -50 9 -11 7 -2 -6 20 -27 49 -47 72 -26
30z"/>
<path d="M1490 1070 c-6 -11 -8 -20 -6 -20 3 0 10 9 16 20 6 11 8 20 6 20 -3
0 -10 -9 -16 -20z"/>
<path d="M613 860 c0 -36 2 -50 4 -32 2 17 2 47 0 65 -2 17 -4 3 -4 -33z"/>
<path d="M662 858 l2 -63 3 58 c3 39 8 55 15 51 7 -4 8 -3 4 4 -17 27 -26 8
-24 -50z"/>
<path d="M753 875 c0 -27 2 -38 4 -22 2 15 2 37 0 50 -2 12 -4 0 -4 -28z"/>
<path d="M800 860 l0 -60 39 0 c47 0 71 20 71 60 0 40 -24 60 -71 60 l-39 0 0
-60z m74 44 c19 -7 22 -64 4 -82 -7 -7 -22 -12 -35 -12 -21 0 -23 4 -23 50 0
52 11 61 54 44z"/>
<path d="M950 904 c-8 -8 -13 -28 -13 -44 0 -38 19 -60 54 -60 31 0 59 31 59
66 0 45 -72 73 -100 38z m69 -8 c31 -37 -9 -103 -46 -80 -37 23 -24 94 17 94
10 0 23 -6 29 -14z"/>
<path d="M1082 858 l1 -63 7 60 c5 55 7 58 17 35 6 -14 24 -39 40 -56 15 -16
22 -23 16 -14 -7 9 -13 20 -13 24 0 12 -52 76 -61 76 -5 0 -8 -28 -7 -62z"/>
<path d="M1173 880 c0 -25 2 -35 4 -22 2 12 2 32 0 45 -2 12 -4 2 -4 -23z"/>
<path d="M1229 893 c6 -21 14 -28 34 -29 26 -1 26 -1 2 3 -16 3 -25 11 -25 23
0 14 9 20 38 23 35 3 34 4 -10 5 -46 2 -46 2 -39 -25z"/>
<path d="M1352 908 c-7 -7 -12 -18 -12 -25 0 -17 38 -36 62 -30 15 4 19 1 16
-16 -3 -19 -9 -22 -41 -21 -24 1 -35 -2 -29 -8 5 -5 25 -8 43 -6 30 3 34 6 34
33 0 27 -3 30 -36 33 -32 3 -36 6 -31 24 4 17 11 19 39 15 20 -4 31 -2 28 4
-9 13 -59 11 -73 -3z"/>
<path d="M1473 860 c0 -36 2 -50 4 -32 2 17 2 47 0 65 -2 17 -4 3 -4 -33z"/>
<path d="M1565 910 c3 -5 8 -10 11 -10 2 0 4 5 4 10 0 6 -5 10 -11 10 -5 0 -7
-4 -4 -10z"/>
<path d="M1541 874 c-14 -32 -3 -48 30 -41 22 4 22 4 -3 6 -25 1 -27 3 -17 27
13 36 5 41 -10 8z"/>
<path d="M690 883 c0 -5 15 -25 33 -44 17 -20 26 -28 20 -19 -7 9 -13 21 -13
27 0 5 -9 18 -20 28 -11 10 -20 14 -20 8z"/>
<path d="M1580 869 c7 -11 14 -19 16 -16 7 7 -7 37 -17 37 -6 0 -5 -9 1 -21z"/>
<path d="M1229 828 c-6 -28 -6 -28 45 -26 49 1 50 2 9 5 -34 3 -42 8 -45 26
-3 20 -4 19 -9 -5z"/>
<path d="M1600 823 c0 -13 5 -23 10 -23 13 0 13 11 0 30 -8 12 -10 11 -10 -7z"/>
<path d="M1516 815 c-3 -8 -1 -15 4 -15 6 0 10 7 10 15 0 8 -2 15 -4 15 -2 0
-6 -7 -10 -15z"/>
<path d="M925 700 c23 -41 76 -120 81 -120 6 0 -64 111 -79 125 -7 7 -7 5 -2
-5z"/>
<path d="M1213 624 c-28 -46 -48 -82 -43 -79 12 8 111 165 102 165 -4 -1 -30
-39 -59 -86z"/>
<path d="M1018 553 c16 -29 60 -63 82 -63 10 0 28 9 41 21 l24 21 -25 -16
c-37 -24 -59 -19 -98 22 -19 20 -30 27 -24 15z"/>
<path d="M825 224 c-144 -20 -118 -33 94 -45 170 -10 497 1 522 17 31 19 -55
27 -311 30 -151 1 -288 0 -305 -2z"/>
</g>
</svg>
